<?xml version="1.0" encoding="utf-8"?>
<!-- Generator: Adobe Illustrator 27.0.1, SVG Export Plug-In . SVG Version: 6.00 Build 0)  -->
<svg version="1.1" id="Layer_1" xmlns="http://www.w3.org/2000/svg" xmlns:xlink="http://www.w3.org/1999/xlink" x="0px" y="0px"
	 viewBox="0 0 2007.2 1080" style="enable-background:new 0 0 2007.2 1080;" xml:space="preserve">
<style type="text/css">
	.st0{fill:#333F48;}
</style>
<g id="Layer_1_00000071551841294732547600000012015491210064822144_">
	<path class="st0" d="M1022.9,405.6v37.5h70.6v25.5h-70.6v39.2h82.8v25.5H989.9V380.1h115.9l-34.6,25.5L1022.9,405.6z M959.1,485.2
		c0,30.6-22.2,48.1-60.9,48.1h-69V380.1H961l-34.6,25.5h-64.2v34.2h40.2C939,439.9,959.1,456,959.1,485.2z M927.4,486.6
		c0-14.1-9.8-21.2-30.8-21.2h-34.5v42.5h34.5C917.1,507.9,927.4,501,927.4,486.6L927.4,486.6z M1264.9,435c0,33.8-25,55-65.3,55h-30
		v43.4h-33.1V380.1h63.1C1239.9,380.1,1264.9,401.1,1264.9,435z M1231.8,435.1c0-19-11.7-29.4-32.8-29.4h-29.3v58.8h29.3
		C1220.1,464.4,1231.8,454,1231.8,435.1L1231.8,435.1z M772.3,500.2c-8.8,4.8-18.6,7.2-28.5,7.1c-29.8,0-51.5-21.3-51.5-50.6
		s21.6-50.6,51.5-50.6c10.8-0.2,21.3,3.1,30.1,9.4l23.7-17.5l0,0l-1.6-1.4c-13.8-12.2-32.3-18.6-53.5-18.6c-23,0-43.8,7.7-58.6,21.8
		s-23.2,34-23.2,56s8.2,42.3,23.1,56.8s35.7,22.7,58.5,22.7c23.8,0,44.7-8.3,58.8-23.4l-21.4-15.8L772.3,500.2z M456.7,584.1
		c-70.3,0-127.3-57-127.3-127.4c0-70.3,57-127.3,127.4-127.3c29.1,0,57.3,10,80,28.3l-24.8,18.3c-44.7-30.5-105.6-19-136,25.7
		s-19,105.6,25.7,136c44.7,30.5,105.6,19,136-25.7c11.1-16.3,17-35.5,17-55.2c0-0.9,0-1.7,0-2.6l27.3-20.2
		c12.5,69.3-33.4,135.6-102.7,148.1C471.8,583.4,464.3,584.1,456.7,584.1L456.7,584.1z M456.7,453.2l-48.5-30.4v36.6l48.5,30.4
		l116-85.5c-4.1-9-9.2-17.5-15.3-25.3L456.7,453.2z M808.3,737.6h27.4V584.4h-32.4L753,667.8l-50.8-83.4h-34.6v153.3H695V623.6
		l50.3,80.3h13.8l49.3-81.4L808.3,737.6z M864.6,660.8c0,49.7,32.8,79.3,82.1,79.3c49.9,0,82.1-32.6,82.1-78.8
		c0-49.5-32.8-79-82.1-79.3C896.8,582,864.6,614.6,864.6,660.8L864.6,660.8z M893.5,661c0-32,20.1-53.6,53-53.9
		c35,0.2,53.4,23.9,53.4,53.9c0,32.2-20.4,53.9-53,53.9C911.9,714.7,893.5,691,893.5,661L893.5,661z M1057.5,737.6h56.7
		c39.2,0,64.1-17.5,64.1-51.2s-21.4-49.5-63.5-49.5h-30v-27.4h81.4v-25.2h-108.8L1057.5,737.6z M1114,662.1
		c23.6,0,35.9,5.3,35.9,23.7c0,20.4-14,26.7-35.9,26.7h-29.1v-50.4H1114z M1252.1,584.4L1190,737.6h27.8l14.4-36.3h70.3l14.7,36.3
		h29.1l-63-153.3H1252.1z M1267.3,613.3l25.2,62.8H1242L1267.3,613.3z M1395.3,584.4H1368v153.3h29.3l84.1-116.3v116.3h27.4V584.4
		h-29.8l-83.6,114.5L1395.3,584.4z M1456.8,545c-1.1,7.7-5.9,12.7-18.8,12.7c-12.5,0-18.4-4.8-19.7-12.7h-25.8
		c2.6,25.8,21.4,32,46,32c25,0,41.4-10.5,43.8-32H1456.8z M1650.3,737.7h27.4V584.4h-110.8l-1.5,31.8c-4.4,88.2-16.8,94.8-27.4,94.8
		c-2.2,0-4.5-0.3-6.6-1.1v27.6c3.3,1.5,7.4,2.2,12.3,2.2c22.3,0,41.8-11.4,48-122.8l0.4-7.2h58.2L1650.3,737.7z"/>
</g>
</svg>
